<?xml version="1.0" standalone="no"?>
<!DOCTYPE svg PUBLIC "-//W3C//DTD SVG 20010904//EN"
 "http://www.w3.org/TR/2001/REC-SVG-20010904/DTD/svg10.dtd">
<svg version="1.0" xmlns="http://www.w3.org/2000/svg"
 width="700.000000pt" height="700.000000pt" viewBox="0 0 700.000000 700.000000"
 preserveAspectRatio="xMidYMid meet">
<metadata>
Created by potrace 1.14, written by Peter Selinger 2001-2017
</metadata>
<g transform="translate(0.000000,700.000000) scale(0.100000,-0.100000)"
fill="#000000" stroke="none">
<path d="M3210 6709 c-398 -43 -908 -195 -1260 -375 -243 -124 -553 -361 -772
-592 -119 -126 -317 -375 -403 -507 -267 -409 -437 -920 -486 -1454 -15 -168
-7 -531 16 -696 95 -704 363 -1278 832 -1788 589 -640 1555 -1042 2433 -1014
521 17 1092 177 1532 429 463 265 762 550 1087 1036 353 527 558 1296 511
1917 -44 595 -217 1150 -484 1555 -209 318 -563 693 -856 910 -373 275 -947
490 -1510 565 -147 20 -516 28 -640 14z m-966 -1074 c139 -29 280 -115 341
-208 19 -29 46 -88 60 -132 14 -44 33 -90 42 -104 20 -30 14 -116 -22 -341
-48 -301 -79 -529 -73 -536 4 -3 66 6 138 20 73 14 138 26 146 26 24 0 27 17
-103 -738 -5 -29 -20 -42 -118 -107 -174 -115 -275 -240 -336 -419 -50 -144
-55 -331 -14 -474 26 -87 84 -197 142 -267 88 -107 296 -229 433 -255 62 -12
218 3 325 30 115 29 206 82 310 180 49 47 99 90 110 96 61 34 117 240 159 594
21 171 38 222 91 279 103 110 293 149 415 86 79 -41 151 -147 186 -276 26 -91
26 -369 1 -489 -49 -231 -160 -490 -276 -645 -75 -99 -230 -257 -313 -320
-169 -127 -410 -227 -658 -271 -113 -20 -368 -20 -480 0 -464 84 -831 363
-1056 803 -128 251 -171 541 -129 873 41 323 152 962 255 1460 33 162 97 473
140 690 44 217 84 405 90 418 19 43 79 51 194 27z m1227 1 c89 -19 181 -67
247 -129 63 -60 93 -108 127 -203 13 -38 31 -89 40 -114 21 -58 17 -114 -41
-465 -25 -148 -47 -305 -51 -348 l-6 -78 29 7 c16 3 61 15 99 26 102 29 395
36 565 14 302 -40 585 -195 829 -452 151 -160 250 -329 326 -558 60 -180 79
-291 78 -471 0 -182 -17 -283 -79 -464 -170 -499 -481 -820 -949 -979 -171
-59 -280 -76 -485 -76 -163 -1 -191 2 -235 19 -56 23 -82 58 -71 96 3 13 31
42 63 64 116 83 374 369 466 518 21 35 50 59 126 106 169 104 266 208 346 373
56 114 69 190 63 377 -4 125 -9 157 -31 220 -67 191 -218 362 -384 437 -178
80 -437 78 -603 -6 -161 -81 -318 -249 -403 -428 -29 -61 -32 -78 -35 -182 -3
-72 3 -169 13 -255 23 -185 22 -199 -21 -263 -86 -124 -315 -242 -469 -242
-108 1 -162 50 -210 193 -46 138 -60 244 -59 462 0 190 2 209 37 380 20 99 68
351 107 560 39 209 100 531 135 715 35 184 93 493 129 686 72 383 88 448 114
463 24 15 116 13 193 -3z"/>
</g>
</svg>
