<?xml version="1.0" standalone="no"?>
<!DOCTYPE svg PUBLIC "-//W3C//DTD SVG 20010904//EN"
 "http://www.w3.org/TR/2001/REC-SVG-20010904/DTD/svg10.dtd">
<svg version="1.0" xmlns="http://www.w3.org/2000/svg"
 width="700.000000pt" height="700.000000pt" viewBox="0 0 700.000000 700.000000"
 preserveAspectRatio="xMidYMid meet">
<metadata>
Created by potrace 1.14, written by Peter Selinger 2001-2017
</metadata>
<g transform="translate(0.000000,700.000000) scale(0.100000,-0.100000)"
fill="#000000" stroke="none">
<path d="M2940 6335 c-373 -50 -836 -194 -1130 -352 -146 -78 -362 -235 -532
-386 -235 -211 -508 -563 -646 -835 -364 -716 -421 -1590 -156 -2353 132 -379
317 -689 604 -1007 468 -521 1206 -876 1961 -943 511 -45 1170 102 1653 369
438 242 725 511 1031 967 333 498 518 1218 465 1815 -32 354 -132 750 -264
1050 -175 393 -587 883 -981 1165 -341 244 -821 424 -1340 501 -152 22 -526
27 -665 9z m-805 -985 c178 -46 304 -159 345 -310 7 -25 21 -62 32 -84 24 -48
23 -67 -33 -425 -50 -324 -57 -396 -38 -389 27 10 259 51 264 46 4 -4 -59
-395 -100 -615 l-17 -92 -93 -61 c-166 -108 -272 -244 -327 -420 -19 -63 -23
-96 -23 -210 1 -125 3 -142 31 -221 38 -106 107 -212 182 -279 68 -61 245
-153 327 -170 44 -9 81 -9 158 0 197 23 316 78 448 206 42 41 82 74 88 74 18
0 66 112 90 210 11 47 30 157 41 245 33 266 43 296 109 358 62 58 144 89 236
90 84 1 127 -16 188 -72 49 -45 87 -116 113 -211 27 -96 25 -332 -4 -462 -58
-266 -175 -501 -338 -678 -190 -208 -350 -309 -619 -393 -238 -74 -540 -77
-777 -6 -293 87 -537 270 -719 542 -196 293 -259 580 -209 962 38 297 154 966
230 1330 12 55 64 307 115 560 104 511 99 495 180 495 23 0 77 -9 120 -20z
m1097 9 c76 -16 168 -62 225 -113 57 -52 98 -124 141 -252 31 -88 31 -93 21
-180 -5 -49 -23 -168 -39 -264 -24 -145 -60 -388 -60 -405 0 -11 49 -4 115 16
138 41 473 36 655 -8 205 -50 426 -185 611 -372 112 -114 192 -230 253 -368
93 -208 136 -398 136 -593 0 -147 -20 -261 -71 -417 -75 -225 -183 -412 -324
-562 -231 -245 -576 -398 -942 -417 -203 -11 -324 23 -331 93 -3 27 3 35 45
64 98 68 377 369 422 457 24 46 74 94 127 120 87 44 198 146 266 246 90 130
118 230 118 416 0 140 -19 222 -77 333 -85 161 -229 283 -392 331 -119 35
-280 30 -406 -12 -162 -55 -350 -237 -432 -420 -33 -71 -40 -188 -23 -347 23
-219 23 -229 7 -262 -23 -43 -106 -122 -171 -161 -128 -78 -298 -110 -373 -69
-131 70 -198 522 -130 872 25 129 96 501 306 1617 61 323 116 600 122 615 5
15 17 34 26 41 21 15 104 16 175 1z"/>
</g>
</svg>
