<?xml version="1.0" standalone="no"?>
<!DOCTYPE svg PUBLIC "-//W3C//DTD SVG 20010904//EN" "http://www.w3.org/TR/2001/REC-SVG-20010904/DTD/svg10.dtd">
<svg version="1.0" xmlns="http://www.w3.org/2000/svg" width="40px" height="256px" viewBox="0 0 256 256" preserveAspectRatio="xMidYMid meet">
  <g transform="translate(9,247) scale(0.095,-0.095)" fill="royalblue" stroke="none">
    <circle cx="1250" cy="1250" r="1350" fill="white"/>
    <path d="M1154 2489 c-192 -17 -450 -102 -577 -191 -147 -101 -224 -176 -335
    -322 -154 -202 -241 -495 -229 -770 15 -321 129 -592 346 -819 247 -259 666
    -411 1011 -367 291 36 525 141 731 327 70 63 190 222 240 318 101 192 156 432
    145 635 -10 192 -68 408 -150 554 -77 138 -217 296 -356 403 -206 157 -556
    256 -826 232z m-325 -435 c55 -28 85 -65 97 -119 4 -16 11 -33 16 -36 7 -4 0
    -66 -17 -168 -15 -89 -25 -164 -23 -166 2 -2 29 3 61 10 31 7 57 10 57 7 -1
    -19 -48 -294 -51 -296 -2 -2 -23 -15 -46 -30 -132 -81 -180 -254 -110 -393 31
    -60 72 -97 146 -131 46 -21 62 -24 120 -18 79 8 140 35 180 82 17 19 34 34 39
    34 21 0 51 99 60 197 6 65 15 111 26 127 22 34 72 59 119 59 189 0 177 -390
    -18 -601 -76 -82 -128 -117 -227 -153 -230 -84 -478 -19 -625 164 -92 115
    -133 228 -133 367 0 76 56 413 116 699 20 91 44 211 54 265 11 54 21 105 24
    112 9 23 78 16 135 -12z m449 10 c50 -21 89 -60 102 -103 6 -20 16 -46 22 -58
    8 -16 4 -60 -17 -178 -15 -86 -25 -159 -22 -162 3 -3 23 1 44 8 64 22 227 17
    305 -10 136 -46 268 -160 327 -283 77 -163 88 -302 34 -453 -68 -192 -178
    -306 -359 -371 -120 -44 -296 -45 -310 -2 -4 15 -1 24 12 31 34 17 170 162
    183 195 8 19 27 39 46 48 57 27 113 83 142 142 24 48 28 70 28 137 0 67 -4 89
    -28 137 -64 129 -194 184 -337 142 -63 -19 -142 -92 -179 -167 -20 -42 -22
    -58 -18 -125 3 -42 8 -89 12 -103 19 -72 -159 -175 -235 -136 -54 27 -84 224
    -55 362 9 44 25 125 35 180 10 55 28 150 39 210 21 106 57 298 86 455 24 127
    20 120 66 120 22 0 56 -7 77 -16z"/>
  </g>
</svg>
